<svg xmlns="http://www.w3.org/2000/svg" width="168" height="46" viewBox="0 0 168 46" role="img" aria-label="Telefon sürümü"><rect x=".9" y=".9" width="166.2" height="44.2" rx="22.1" fill="none" stroke="#3a4048" stroke-width="1.5"/><g transform="translate(20 15.0)" fill="#c9ced8"><path d="M4.4 0h7.2A1.9 1.9 0 0 1 13.5 1.9v12.2A1.9 1.9 0 0 1 11.6 16H4.4a1.9 1.9 0 0 1-1.9-1.9V1.9A1.9 1.9 0 0 1 4.4 0Zm0 1.5a.4.4 0 0 0-.4.4v12.2c0 .2.2.4.4.4h7.2c.2 0 .4-.2.4-.4V1.9a.4.4 0 0 0-.4-.4Zm2.1 11h3v1.1h-3Z"/></g><text x="45" y="23.0" dominant-baseline="central" textLength="103.1" lengthAdjust="spacingAndGlyphs" font-family="-apple-system,BlinkMacSystemFont,'Segoe UI',Roboto,Helvetica,Arial,sans-serif" font-size="15" font-weight="600" fill="#c9ced8">Telefon sürümü</text></svg>